<?xml version="1.0" standalone="no"?>
<!DOCTYPE svg PUBLIC "-//W3C//DTD SVG 20010904//EN"
 "http://www.w3.org/TR/2001/REC-SVG-20010904/DTD/svg10.dtd">
<svg version="1.0" xmlns="http://www.w3.org/2000/svg"
 width="2000.000000pt" height="2000.000000pt" viewBox="0 0 2000.000000 2000.000000"
 preserveAspectRatio="xMidYMid meet">
<metadata>
Created by potrace 1.11, written by Peter Selinger 2001-2013
</metadata>
<g transform="translate(0.000000,2000.000000) scale(0.100000,-0.100000)"
fill="#000000" stroke="none">
<path d="M14559 18186 c-2 -2 -71 -7 -154 -11 -82 -4 -168 -9 -190 -10 -94 -6
-212 -16 -235 -20 -14 -2 -56 -6 -95 -10 -38 -3 -83 -8 -100 -10 -16 -2 -52
-7 -80 -10 -72 -8 -204 -25 -245 -31 -19 -3 -53 -7 -75 -10 -22 -3 -49 -7 -61
-9 -12 -3 -39 -7 -60 -10 -78 -12 -272 -46 -369 -67 -55 -11 -111 -22 -125
-24 -14 -3 -52 -11 -85 -19 -33 -8 -71 -17 -85 -19 -14 -3 -36 -8 -50 -11 -27
-6 -334 -82 -362 -90 -10 -3 -28 -7 -40 -10 -25 -5 -31 -7 -343 -99 -297 -88
-832 -272 -990 -341 -16 -7 -84 -34 -150 -61 -66 -26 -147 -59 -180 -74 -33
-15 -74 -33 -91 -40 l-30 -13 1 -6966 c1 -3831 3 -6967 3 -6968 1 -1 25 11 52
27 28 16 50 26 51 22 0 -4 0 -26 -1 -49 -1 -24 1 -43 3 -43 2 0 48 25 101 55
203 114 503 269 696 357 235 107 269 122 395 172 66 26 129 52 140 57 205 89
827 285 1095 344 8 2 56 13 105 25 113 27 264 59 350 73 17 3 73 13 125 22
122 21 162 27 255 40 22 3 54 7 70 10 17 3 57 7 89 10 33 3 62 8 65 9 3 2 44
6 91 10 167 13 225 18 260 22 215 24 958 23 1270 -1 119 -10 395 -37 495 -50
83 -10 263 -35 285 -40 13 -2 42 -7 65 -10 49 -7 243 -42 305 -55 25 -5 59
-12 75 -14 17 -3 62 -12 100 -21 39 -8 82 -17 97 -20 14 -3 66 -14 115 -26 48
-12 95 -22 103 -24 35 -7 274 -70 388 -102 68 -19 131 -36 140 -38 134 -29
956 -315 1180 -411 17 -8 47 -20 65 -28 17 -8 55 -23 82 -34 28 -11 129 -55
225 -97 156 -69 231 -104 446 -206 34 -16 66 -29 73 -29 6 0 30 -9 52 -20 22
-12 43 -18 48 -16 4 3 8 3113 8 6910 l0 6905 -51 25 c-483 234 -1292 548
-1796 697 -41 12 -94 28 -116 35 -159 50 -722 193 -832 210 -20 3 -40 8 -43
10 -3 2 -19 5 -35 8 -16 3 -51 10 -79 16 -27 6 -75 15 -105 20 -30 5 -65 12
-78 15 -13 2 -83 13 -155 25 -73 11 -159 25 -192 30 -33 5 -80 12 -105 15 -25
3 -56 8 -70 10 -14 2 -54 7 -90 10 -36 4 -72 8 -80 10 -8 2 -51 7 -95 10 -44
3 -93 8 -110 10 -38 5 -139 14 -241 20 -43 3 -117 8 -164 11 -93 7 -925 15
-931 10z"/>
<path d="M355 16915 c-154 -80 -297 -152 -317 -161 l-38 -16 0 -294 0 -293 54
24 55 24 3 -44 3 -43 35 17 c19 9 75 34 124 55 49 21 126 55 170 75 45 21 131
59 193 86 l112 50 0 307 c0 196 -4 308 -10 308 -5 0 -28 -9 -50 -21 -23 -11
-43 -19 -45 -16 -2 2 -5 22 -6 45 -1 23 -2 42 -2 42 -1 0 -127 -66 -281 -145z"/>
<path d="M9985 17015 c-161 -79 -568 -276 -650 -315 -75 -35 -161 -77 -640
-310 -104 -51 -232 -112 -282 -136 -84 -40 -93 -47 -93 -72 -1 -42 -1 -1695
-1 -1715 1 -16 6 -15 51 8 27 14 52 25 55 25 3 0 5 -21 5 -46 l0 -45 158 82
c86 45 199 104 251 131 287 151 470 247 621 326 47 24 128 67 180 94 52 28
160 84 240 126 80 41 181 95 225 118 l80 43 3 845 2 846 -51 -25 c-28 -15 -53
-25 -55 -22 -2 2 -5 22 -6 45 -1 23 -2 42 -2 42 -1 -1 -41 -21 -91 -45z"/>
<path d="M1825 16519 c-220 -133 -404 -245 -410 -250 -6 -6 -10 -168 -10 -423
0 -454 -5 -423 60 -384 45 27 51 23 50 -27 -1 -25 0 -45 1 -45 4 0 76 40 189
105 50 28 115 65 145 82 30 17 126 72 214 122 87 50 160 91 162 91 1 0 27 15
57 33 l55 32 0 432 0 433 -22 -12 c-11 -6 -33 -19 -48 -29 -14 -11 -29 -19
-32 -19 -3 0 -6 23 -8 50 l-3 50 -400 -241z"/>
<path d="M7550 16213 c-223 -112 -588 -297 -812 -410 l-408 -205 0 -794 c0
-437 2 -794 4 -794 3 0 26 11 52 25 26 14 49 25 50 25 2 0 4 -20 4 -45 0 -25
2 -45 4 -45 2 0 192 95 423 211 230 116 591 299 803 406 212 107 389 198 394
203 9 9 16 1549 8 1577 -2 8 -19 3 -52 -13 -26 -13 -50 -24 -53 -24 -3 0 -4
18 -2 40 1 22 0 42 -4 44 -3 2 -188 -88 -411 -201z"/>
<path d="M5905 16295 c-27 -12 -99 -46 -160 -75 -60 -29 -135 -63 -165 -77
-58 -27 -174 -82 -337 -159 -54 -26 -129 -61 -168 -79 -91 -42 -204 -95 -335
-158 -58 -27 -120 -56 -137 -63 l-33 -14 0 -700 c0 -385 4 -700 8 -700 5 0 27
9 50 20 22 11 44 20 47 20 3 0 5 -20 5 -44 l0 -45 93 46 c50 25 119 58 152 73
33 15 132 63 220 105 88 43 201 97 250 120 115 55 317 152 518 248 l157 76 0
695 0 695 -56 -25 -57 -25 6 28 c2 15 2 36 -2 45 -5 15 -11 14 -56 -7z"/>
<path d="M3975 16091 c-44 -22 -114 -55 -155 -74 -41 -19 -138 -65 -215 -102
-77 -37 -171 -82 -210 -100 -38 -18 -128 -61 -200 -95 -71 -34 -158 -75 -192
-91 l-63 -28 0 -48 c-2 -189 0 -956 2 -958 2 -2 25 8 51 20 52 25 54 24 59
-31 l3 -32 200 89 c110 50 218 98 240 109 22 10 112 51 200 90 88 40 183 82
210 95 28 12 100 44 160 71 61 26 112 50 115 51 5 4 7 989 2 1020 -4 21 -4 21
-35 3 -18 -10 -42 -21 -55 -25 -21 -6 -22 -4 -18 34 2 26 0 41 -8 41 -6 0 -47
-18 -91 -39z"/>
<path d="M10050 15045 c-14 -8 -167 -84 -340 -169 -173 -84 -481 -236 -685
-336 -203 -100 -444 -218 -535 -263 -91 -44 -166 -81 -168 -83 -3 -2 -5 -1599
-2 -1736 l0 -26 55 30 55 30 0 -51 0 -51 43 24 c23 12 110 58 192 101 83 43
173 90 200 105 28 15 109 58 180 95 72 37 175 91 230 120 150 79 295 155 445
233 74 39 187 98 250 132 63 33 139 72 168 87 l52 26 0 849 c0 466 -4 848 -8
848 -5 0 -27 -9 -50 -20 -22 -11 -43 -20 -46 -20 -3 0 -6 20 -8 44 -3 45 -3
45 -28 31z"/>
<path d="M480 14954 c-69 -34 -205 -102 -302 -149 l-178 -87 0 -299 0 -298 54
24 55 24 3 -43 3 -44 40 19 c22 10 148 66 280 124 132 58 257 114 277 123 l37
17 0 313 0 312 -32 -15 c-18 -9 -40 -20 -50 -26 -25 -14 -31 -6 -29 36 2 47
-7 45 -158 -31z"/>
<path d="M2180 14702 c-25 -15 -52 -31 -60 -35 -15 -7 -645 -388 -691 -418
l-24 -16 1 -409 c1 -225 2 -413 3 -417 0 -5 21 3 45 17 25 14 49 26 54 26 5 0
8 -18 6 -40 -1 -22 1 -42 4 -44 4 -2 68 30 142 71 74 41 167 92 205 113 39 21
161 88 271 149 l202 112 0 439 0 440 -22 -12 c-11 -6 -33 -19 -48 -29 -14 -11
-29 -19 -32 -19 -3 0 -6 23 -8 50 l-3 51 -45 -29z"/>
<path d="M7580 14198 c-206 -104 -572 -289 -812 -410 l-438 -220 0 -794 c0
-751 1 -793 18 -787 9 4 32 15 50 25 18 10 34 18 37 18 2 0 5 -21 7 -46 l3
-45 205 104 c113 57 480 242 815 411 l610 306 -2 768 c-1 422 -2 779 -2 795
l-1 27 -49 -25 c-52 -26 -65 -22 -57 18 2 13 1 28 -2 34 -4 6 -158 -66 -382
-179z"/>
<path d="M5811 14220 c-79 -39 -144 -70 -146 -70 -1 0 -98 -47 -216 -104 -118
-57 -257 -124 -309 -148 -52 -25 -160 -77 -240 -115 -80 -39 -187 -90 -237
-114 l-93 -43 0 -702 0 -703 53 24 52 25 5 -45 5 -45 95 46 c52 25 127 61 165
79 39 18 135 64 215 103 80 38 192 92 250 120 58 27 184 88 280 134 96 46 221
106 278 133 l102 49 0 703 0 703 -27 -12 c-16 -7 -38 -19 -50 -26 -20 -12 -24
-12 -29 2 -3 9 -4 22 -1 29 2 6 1 20 -2 29 -5 15 -25 8 -150 -52z"/>
<path d="M4010 14079 c-31 -17 -198 -97 -425 -204 -44 -21 -120 -57 -170 -80
-49 -23 -142 -67 -205 -97 -63 -31 -150 -72 -192 -92 -73 -34 -78 -38 -78 -69
-2 -154 0 -970 2 -972 2 -2 19 5 39 14 71 35 70 35 67 -9 -1 -22 0 -41 3 -44
2 -2 22 4 44 14 22 10 85 38 140 63 55 25 125 56 155 70 30 13 96 43 145 65
50 22 120 54 158 71 110 51 184 84 337 151 80 36 147 66 150 68 8 6 5 1032 -3
1032 -4 0 -26 -9 -48 -21 -47 -23 -54 -20 -55 24 0 39 -16 43 -64 16z"/>
<path d="M560 13049 c-36 -17 -94 -44 -129 -60 -35 -17 -98 -46 -140 -66 -42
-20 -123 -58 -181 -84 l-105 -48 -3 -300 -2 -300 46 19 c25 11 50 20 54 20 5
0 10 -17 12 -39 l3 -39 315 133 315 133 2 311 c1 171 0 311 -2 311 -3 0 -26
-10 -50 -21 -25 -12 -48 -20 -50 -17 -2 2 -5 20 -7 41 -1 20 -5 37 -8 37 -3 0
-34 -14 -70 -31z"/>
<path d="M10030 13033 c-19 -10 -132 -64 -250 -121 -118 -58 -269 -130 -335
-162 -174 -83 -384 -185 -590 -285 -99 -48 -241 -116 -315 -152 -245 -117
-220 -99 -221 -157 -2 -286 1 -1699 4 -1703 3 -2 28 7 57 22 l52 26 -3 -40
c-2 -22 0 -43 3 -46 3 -4 75 29 160 73 84 44 239 123 343 177 105 54 251 129
325 168 469 242 679 351 818 422 l112 58 0 848 c0 467 -3 849 -7 849 -5 -1
-26 -9 -48 -20 -22 -11 -43 -19 -47 -20 -5 0 -8 18 -8 40 0 45 -2 46 -50 23z"/>
<path d="M2000 12663 c-124 -74 -308 -186 -410 -247 l-185 -111 0 -423 c0
-232 3 -422 6 -422 4 0 26 11 50 24 24 14 46 23 49 21 4 -2 6 -22 4 -45 -1
-22 2 -40 7 -40 7 0 78 38 169 92 19 11 57 32 83 47 26 14 56 31 65 36 10 6
126 72 259 148 l241 138 0 434 c0 252 -4 435 -9 435 -5 0 -27 -11 -49 -25 -22
-14 -42 -25 -44 -25 -3 0 -6 22 -8 50 l-3 49 -225 -136z"/>
<path d="M7560 12258 c-217 -110 -583 -295 -812 -411 l-418 -210 0 -793 c0
-700 2 -793 15 -788 8 4 32 15 52 25 l38 20 5 -47 5 -46 375 190 c206 104 571
287 810 408 239 120 437 222 440 225 4 6 5 1524 1 1576 -1 8 -18 4 -50 -12
-27 -14 -51 -25 -53 -25 -3 0 -4 20 -3 45 0 25 -1 45 -4 44 -4 0 -184 -91
-401 -201z"/>
<path d="M5840 12292 c-52 -26 -135 -66 -185 -89 -49 -23 -144 -67 -210 -99
-123 -58 -206 -96 -342 -160 -43 -20 -123 -57 -178 -84 -55 -26 -152 -71 -215
-100 -63 -29 -121 -57 -127 -63 -10 -7 -13 -161 -13 -708 0 -385 1 -699 3
-699 2 0 25 11 53 24 l49 24 3 -44 c2 -24 5 -44 7 -44 3 0 30 13 62 29 61 31
283 137 418 201 44 21 148 70 230 110 137 66 264 127 568 272 l107 52 0 693
c0 381 -4 693 -8 693 -5 0 -27 -9 -50 -20 -48 -23 -53 -24 -51 -7 4 34 -2 67
-13 66 -7 0 -56 -22 -108 -47z"/>
<path d="M3879 12097 c-180 -89 -472 -232 -786 -384 l-153 -74 0 -62 c-2 -266
0 -940 3 -943 1 -2 14 2 27 9 14 7 38 18 53 25 l29 12 -3 -42 c-3 -47 1 -49
56 -23 17 7 77 34 135 60 97 44 171 77 245 110 298 136 678 305 686 305 5 0
10 10 10 23 3 61 4 1023 1 1029 -1 4 -25 -3 -52 -17 -27 -14 -51 -25 -54 -25
-2 0 -3 20 -2 45 1 25 -1 45 -4 44 -3 0 -89 -42 -191 -92z"/>
<path d="M585 11056 c-27 -13 -166 -81 -309 -150 -142 -69 -262 -126 -267
-126 -5 0 -9 -132 -9 -300 0 -165 2 -300 4 -300 2 0 25 9 51 20 26 11 49 20
51 20 2 0 4 -18 4 -40 0 -45 11 -50 50 -23 14 10 26 17 27 16 4 -3 55 19 273
117 107 48 216 97 242 108 l47 20 0 311 0 310 -25 -9 c-13 -5 -37 -16 -54 -25
l-29 -15 -3 45 -3 46 -50 -25z"/>
<path d="M9995 11001 c-44 -21 -156 -75 -250 -121 -93 -45 -233 -113 -310
-150 -77 -37 -225 -109 -330 -160 -241 -117 -439 -213 -632 -306 l-153 -73 -1
-43 c0 -50 0 -1549 1 -1650 l0 -67 49 24 c27 14 52 25 55 25 3 0 6 -21 6 -46
l0 -45 118 62 c64 34 162 86 217 114 213 110 362 189 420 220 33 18 123 65
200 105 77 40 176 92 220 115 44 23 134 71 200 105 66 34 180 94 253 133 l132
70 0 843 0 843 -40 -18 c-22 -10 -43 -21 -47 -24 -15 -15 -22 -4 -25 38 l-3
44 -80 -38z"/>
<path d="M2139 10731 c-42 -26 -80 -50 -85 -52 -24 -10 -409 -245 -412 -251
-2 -5 -7 -8 -12 -8 -7 0 -202 -113 -220 -127 -6 -5 -8 -823 -2 -841 3 -8 19
-3 56 17 l51 30 -1 -42 c0 -23 1 -45 3 -49 4 -8 35 8 153 76 81 46 90 51 391
223 l277 157 0 438 c0 241 -3 438 -6 438 -4 0 -27 -14 -52 -30 l-45 -30 -3 50
c-2 28 -6 50 -10 50 -4 0 -41 -22 -83 -49z"/>
<path d="M7479 10200 c-261 -131 -625 -315 -809 -408 l-335 -169 -2 -802 -3
-801 38 15 c20 9 41 20 47 26 18 18 25 8 25 -36 0 -25 2 -45 4 -45 3 0 60 29
128 64 68 35 231 118 363 186 132 67 312 160 400 205 181 93 480 247 633 325
89 46 102 56 103 79 3 80 4 1547 1 1553 -2 5 -16 1 -32 -7 -17 -9 -41 -20 -54
-25 -23 -8 -24 -7 -21 31 2 21 0 41 -4 44 -4 2 -221 -103 -482 -235z"/>
<path d="M5895 10300 c-66 -31 -221 -104 -330 -155 -38 -18 -115 -54 -170 -80
-55 -26 -125 -58 -155 -72 -30 -15 -120 -57 -199 -95 -79 -37 -145 -68 -147
-68 -1 0 -65 -30 -141 -66 -76 -36 -148 -70 -160 -75 l-23 -9 0 -700 c0 -553
3 -700 13 -700 6 0 27 9 45 20 46 28 52 26 52 -24 l0 -45 173 83 c94 46 215
104 267 129 52 25 167 80 255 122 88 42 196 94 240 115 44 21 160 77 258 124
99 47 183 86 188 86 5 0 9 289 9 700 0 781 7 711 -67 667 -18 -10 -34 -15 -34
-10 -1 4 -3 23 -5 42 -2 19 -5 35 -7 37 -1 1 -29 -11 -62 -26z"/>
<path d="M3945 10101 c-66 -32 -158 -76 -205 -98 -47 -23 -143 -69 -215 -103
-71 -35 -157 -75 -190 -90 -33 -15 -127 -60 -208 -99 -82 -39 -152 -71 -157
-71 -29 0 -31 -36 -31 -520 -1 -270 2 -494 4 -497 3 -2 27 5 52 16 26 12 49
21 51 21 2 0 4 -20 4 -44 l0 -45 83 39 c45 21 107 49 137 63 53 24 102 46 205
92 28 13 142 64 255 115 209 93 223 99 368 165 45 21 82 43 83 49 1 6 2 237 3
514 1 404 -2 502 -12 502 -7 0 -30 -9 -52 -20 -22 -11 -41 -20 -44 -20 -2 0
-3 20 -2 45 1 25 0 45 -3 44 -3 0 -60 -26 -126 -58z"/>
<path d="M9760 8913 c-546 -271 -1313 -648 -1377 -679 l-63 -29 0 -55 c-4
-236 0 -1683 4 -1687 2 -3 24 7 49 21 24 14 47 26 50 26 4 0 7 -20 7 -45 0
-25 2 -45 5 -45 3 0 47 22 98 49 50 26 182 94 292 151 110 56 259 133 330 170
72 37 207 107 300 155 228 118 431 223 598 309 l137 71 0 848 0 848 -22 -7
c-13 -3 -36 -13 -51 -21 -16 -8 -31 -12 -34 -10 -2 3 -4 23 -5 46 0 23 -1 41
-2 40 0 0 -143 -71 -316 -156z"/>
<path d="M610 9025 c-14 -8 -110 -56 -215 -106 -104 -50 -236 -113 -292 -141
l-103 -50 0 -289 c0 -159 4 -289 8 -289 5 0 27 9 50 20 22 11 44 20 47 20 3 0
5 -18 5 -40 0 -22 3 -40 6 -40 6 0 141 59 344 150 47 21 130 58 185 83 l100
43 2 302 c1 197 -1 302 -8 302 -5 0 -24 -8 -42 -17 -46 -25 -51 -23 -57 24 -5
41 -5 42 -30 28z"/>
<path d="M1950 8574 c-151 -92 -336 -203 -410 -248 l-135 -81 0 -410 c-1 -226
0 -413 2 -417 2 -4 28 6 57 22 l52 30 -2 -50 c-1 -28 1 -50 3 -50 3 0 189 104
413 232 l408 232 0 433 0 433 -37 -21 c-20 -12 -40 -26 -45 -31 -19 -16 -25
-7 -28 42 l-3 50 -275 -166z"/>
<path d="M7740 8303 c-113 -57 -473 -239 -800 -404 -327 -165 -598 -304 -603
-308 -4 -4 -6 -366 -5 -804 l3 -798 50 26 c28 14 51 25 53 25 1 0 2 -20 2 -45
0 -25 2 -45 5 -45 3 0 56 26 117 59 62 32 226 116 363 186 138 70 327 167 420
215 405 209 492 254 520 267 17 8 37 18 45 23 8 5 42 22 75 38 33 16 67 35 75
44 13 12 15 118 14 796 0 430 -3 784 -6 787 -3 3 -21 -2 -39 -13 -64 -35 -67
-35 -65 10 0 23 -3 42 -9 43 -5 2 -102 -44 -215 -102z"/>
<path d="M5885 8265 c-139 -68 -507 -245 -510 -245 -1 0 -99 -47 -216 -103
-118 -57 -293 -141 -389 -187 -96 -46 -181 -88 -187 -93 -10 -7 -13 -161 -13
-708 l0 -699 55 25 55 24 0 -45 c0 -24 2 -44 4 -44 2 0 94 43 203 96 109 53
241 117 293 141 110 53 302 145 480 230 69 34 189 91 268 129 l142 68 0 703 0
703 -49 -25 c-28 -14 -52 -21 -54 -17 -2 4 -4 23 -6 41 -1 19 -3 36 -4 37 -1
2 -34 -13 -72 -31z"/>
<path d="M3995 8094 c-38 -19 -131 -63 -205 -98 -74 -36 -206 -99 -294 -140
-87 -42 -160 -76 -161 -76 -2 0 -88 -40 -191 -90 -102 -49 -190 -90 -195 -90
-5 0 -9 -51 -9 -112 -2 -440 -1 -911 2 -913 2 -2 26 7 53 21 l50 24 3 -45 c2
-25 4 -45 6 -45 1 0 27 12 57 26 51 25 437 205 719 334 69 32 159 74 200 93
41 19 92 42 113 50 22 10 37 23 38 34 3 56 4 1000 1 1010 -3 9 -18 5 -53 -12
-26 -14 -50 -25 -53 -25 -2 0 -3 16 -1 34 1 19 -1 39 -4 44 -3 5 -37 -6 -76
-24z"/>
<path d="M374 6966 c-138 -68 -279 -136 -312 -152 l-61 -29 0 -292 -1 -292 55
24 55 25 0 -45 c0 -25 1 -45 3 -45 2 0 22 9 44 20 23 11 81 37 130 59 48 21
114 50 145 65 31 14 59 26 61 26 3 0 47 20 99 43 51 24 108 50 125 58 l33 14
-1 302 c0 167 -2 303 -5 303 -3 0 -27 -11 -54 -25 l-50 -25 -1 32 c-1 18 -1
39 0 46 1 6 -2 12 -6 11 -4 0 -121 -56 -259 -123z"/>
<path d="M9937 6940 c-76 -37 -141 -69 -145 -70 -8 -3 -228 -109 -487 -235
-88 -42 -209 -101 -270 -130 -60 -29 -204 -99 -320 -155 -115 -56 -252 -122
-302 -146 -93 -44 -93 -44 -94 -81 0 -42 0 -1625 1 -1686 l0 -37 50 25 c27 14
52 25 55 25 4 0 6 -15 5 -32 -1 -18 -2 -39 -1 -46 1 -12 219 95 616 303 55 29
190 99 300 155 211 108 352 181 630 325 94 49 180 93 192 99 l23 11 0 853 0
852 -50 -25 c-27 -14 -51 -25 -54 -25 -3 0 -6 20 -8 44 l-3 44 -138 -68z"/>
<path d="M1822 6566 c-221 -134 -406 -246 -409 -250 -9 -9 -10 -846 -2 -846 4
0 27 11 50 25 24 14 47 25 50 25 3 0 5 -20 3 -45 -2 -25 1 -45 6 -45 6 0 76
38 157 84 82 46 164 93 183 104 19 10 134 76 255 145 l220 125 2 440 2 441
-50 -30 c-28 -16 -52 -29 -54 -29 -2 0 -5 22 -7 49 l-3 50 -403 -243z"/>
<path d="M7675 6325 c-154 -78 -520 -263 -812 -410 l-533 -269 0 -798 c0 -561
3 -798 11 -798 6 0 30 12 55 26 l44 26 0 -50 0 -50 103 52 c56 29 210 108 342
176 132 67 303 155 380 195 319 164 665 341 732 375 57 28 72 40 75 60 2 20 2
1513 -1 1558 -1 10 -14 6 -47 -12 -25 -14 -50 -23 -55 -21 -4 3 -6 21 -5 40 2
19 1 37 -3 39 -3 2 -132 -60 -286 -139z"/>
<path d="M5855 6320 c-55 -26 -172 -83 -260 -125 -88 -42 -205 -99 -260 -125
-55 -26 -161 -77 -235 -112 -74 -36 -180 -86 -235 -112 -55 -26 -109 -53 -120
-59 -11 -6 -33 -17 -50 -25 -16 -8 -50 -24 -75 -36 l-45 -22 -3 -693 -2 -692
22 7 c13 3 35 13 50 20 37 19 37 19 40 -30 l3 -43 115 55 c63 30 183 86 265
124 83 38 182 85 220 103 227 108 328 155 330 155 2 0 68 31 147 68 79 38 180
86 226 107 l82 38 0 704 0 704 -30 -16 c-16 -8 -41 -20 -55 -25 -24 -9 -25 -8
-23 30 1 22 -1 42 -3 44 -2 2 -49 -18 -104 -44z"/>
<path d="M3965 6135 c-49 -24 -124 -59 -165 -79 -41 -19 -164 -78 -273 -130
-109 -53 -200 -96 -201 -96 -2 0 -73 -33 -157 -73 -85 -41 -171 -82 -191 -92
-32 -14 -38 -22 -38 -49 -3 -169 0 -980 4 -983 2 -2 17 2 33 10 15 8 38 18 51
21 20 7 22 4 22 -33 0 -23 2 -41 5 -41 2 0 35 14 72 31 38 17 91 41 118 54 28
12 80 37 118 54 37 17 95 44 130 60 87 40 461 214 585 272 56 26 103 54 103
61 6 65 2 1018 -4 1018 -4 0 -25 -9 -47 -20 -54 -27 -59 -26 -56 20 2 24 -2
40 -8 39 -6 0 -51 -20 -101 -44z"/>
<path d="M500 5023 c-69 -35 -209 -107 -312 -160 l-188 -95 0 -289 0 -290 23
7 c12 3 34 13 49 20 38 19 38 19 38 -32 0 -34 3 -43 13 -37 6 4 149 69 317
143 l305 136 2 312 c3 347 9 321 -65 280 -18 -10 -35 -18 -37 -18 -3 0 -5 20
-5 45 0 25 -3 45 -7 44 -5 0 -64 -30 -133 -66z"/>
<path d="M9890 4903 c-180 -87 -332 -161 -620 -300 -313 -151 -446 -216 -640
-310 -107 -53 -218 -106 -247 -119 -28 -12 -54 -28 -58 -34 -8 -13 -9 -1739
-1 -1748 4 -3 29 6 56 21 l50 27 0 -50 c0 -50 0 -50 23 -37 12 8 94 52 182 97
88 46 246 128 350 183 105 54 242 126 305 159 279 147 329 173 395 208 39 20
140 73 225 118 85 44 183 95 217 114 l63 33 0 842 0 843 -25 -10 c-14 -5 -39
-17 -55 -25 l-30 -16 0 46 c0 25 -3 45 -7 44 -5 0 -87 -39 -183 -86z"/>
<path d="M2188 4772 c-14 -9 -57 -35 -95 -58 -360 -216 -661 -399 -673 -410
-13 -12 -15 -75 -15 -429 l0 -414 52 28 c29 16 54 27 56 25 2 -2 3 -25 1 -50
l-3 -45 93 50 c52 28 117 64 145 81 29 16 54 30 56 30 2 0 34 18 72 39 38 21
93 52 123 69 30 16 108 59 174 96 65 36 122 66 126 66 4 0 14 8 23 18 14 15
15 69 15 450 0 237 -2 432 -4 432 -2 0 -25 -13 -52 -30 l-47 -29 -3 49 c-3 55
-5 56 -44 32z"/>
<path d="M7776 4362 c-92 -48 -455 -231 -805 -408 l-636 -321 -3 -797 -2 -797
45 26 c25 14 50 25 55 25 6 0 10 -20 10 -45 l0 -46 548 277 c301 152 553 281
560 286 6 6 12 8 12 6 0 -3 51 21 112 53 62 33 118 59 125 59 6 0 14 4 17 8 3
5 61 36 129 70 69 34 126 67 129 74 6 21 2 1567 -4 1574 -4 3 -27 -6 -52 -21
-25 -15 -47 -25 -47 -23 -1 1 -2 21 -3 42 -1 22 -6 41 -11 42 -6 1 -86 -37
-179 -84z"/>
<path d="M5865 4310 c-122 -58 -538 -253 -660 -310 -33 -15 -118 -55 -188 -89
-71 -34 -130 -61 -132 -61 -2 0 -73 -34 -159 -75 l-156 -74 0 -701 c0 -385 2
-700 5 -700 3 0 28 11 55 25 l50 25 0 -45 c0 -25 2 -45 4 -45 4 0 135 62 401
190 72 34 175 84 230 110 55 26 159 75 230 110 257 124 411 198 468 224 l57
27 0 695 c0 382 -2 694 -5 694 -3 0 -23 -9 -45 -20 -51 -26 -57 -25 -58 8 0
44 -2 52 -9 51 -5 0 -44 -18 -88 -39z"/>
<path d="M3835 4058 c-126 -60 -282 -134 -345 -164 -63 -31 -212 -101 -330
-157 -118 -55 -216 -102 -218 -103 -5 -3 -3 -996 2 -1001 2 -3 26 5 51 16 26
12 49 21 51 21 2 0 4 -20 4 -44 l0 -44 138 62 c75 35 157 72 182 84 25 11 162
72 305 137 143 64 301 135 350 157 50 21 106 48 125 58 l34 19 1 498 c0 274
-1 506 -3 515 -4 16 -7 16 -33 2 -16 -8 -40 -19 -54 -24 -23 -9 -24 -7 -21 18
7 66 5 66 -239 -50z"/>
<path d="M19149 2878 c-12 -39 -9 -41 69 -40 l42 1 0 -135 c0 -134 0 -135 22
-132 22 3 22 6 21 134 l-2 130 46 0 c38 1 48 4 54 22 8 22 8 22 -121 22 -72 0
-130 -1 -131 -2z"/>
<path d="M19473 2725 c-2 -154 -2 -155 21 -155 22 0 22 2 21 120 -1 66 2 117
5 112 4 -4 17 -34 30 -67 12 -33 28 -73 35 -90 7 -16 16 -40 20 -52 5 -18 14
-23 38 -23 31 0 33 2 56 78 13 42 31 97 41 122 l18 45 -2 -118 c-1 -103 1
-120 16 -128 36 -19 43 9 42 162 l0 144 -44 0 -44 0 -34 -95 c-18 -52 -34
-102 -36 -109 -5 -26 -23 -22 -31 6 -3 15 -13 42 -20 58 -21 46 -48 109 -49
115 -4 19 -22 30 -50 30 l-32 0 -1 -155z"/>
</g>
</svg>
